<?xml version="1.0" encoding="UTF-8"?>
<svg version="1.1" xmlns="http://www.w3.org/2000/svg" width="660" height="660">
<path d="M0 0 C1.02561035 0.16628906 2.0512207 0.33257812 3.10791016 0.50390625 C61.97664733 10.13259566 116.36799347 35.82944319 162 74 C162.77633789 74.63881104 162.77633789 74.63881104 163.56835938 75.29052734 C176.72993079 86.12877478 189.39697578 97.90526156 199.91796875 111.36328125 C201.81536798 113.76617896 203.79653911 116.06898829 205.81811523 118.36743164 C250.95815682 170.12275478 278.88658291 244.37103797 279.203125 313.09765625 C279.21013931 314.12189194 279.21715363 315.14612762 279.22438049 316.20140076 C279.24178709 319.48847909 279.24823279 322.77537727 279.25 326.0625 C279.25101212 327.74714355 279.25101212 327.74714355 279.25204468 329.46582031 C279.23637925 345.85859165 278.81293474 361.81455072 276 378 C275.75056641 379.54059082 275.75056641 379.54059082 275.49609375 381.11230469 C265.86624838 439.97919279 240.16947988 494.36928091 202 540 C201.57412598 540.51755859 201.14825195 541.03511719 200.70947266 541.56835938 C189.87122522 554.72993079 178.09473844 567.39697578 164.63671875 577.91796875 C162.23382104 579.81536798 159.93101171 581.79653911 157.63256836 583.81811523 C105.87724522 628.95815682 31.62896203 656.88658291 -37.09765625 657.203125 C-38.12189194 657.21013931 -39.14612762 657.21715363 -40.20140076 657.22438049 C-43.48847909 657.24178709 -46.77537727 657.24823279 -50.0625 657.25 C-51.74714355 657.25101212 -51.74714355 657.25101212 -53.46582031 657.25204468 C-69.85859165 657.23637925 -85.81455072 656.81293474 -102 654 C-103.54059082 653.75056641 -103.54059082 653.75056641 -105.11230469 653.49609375 C-163.97919279 643.86624838 -218.36928091 618.16947988 -264 580 C-264.77633789 579.36118896 -264.77633789 579.36118896 -265.56835938 578.70947266 C-278.72993079 567.87122522 -291.39697578 556.09473844 -301.91796875 542.63671875 C-303.81536798 540.23382104 -305.79653911 537.93101171 -307.81811523 535.63256836 C-353.03009623 483.79476308 -380.89325604 409.50360898 -381.203125 340.68359375 C-381.21364647 339.11387817 -381.21364647 339.11387817 -381.22438049 337.51245117 C-381.24178899 334.15408985 -381.24823272 330.79590479 -381.25 327.4375 C-381.25067474 326.29072784 -381.25134949 325.14395569 -381.25204468 323.96243286 C-381.23656321 307.4275062 -380.85308993 291.32383049 -378 275 C-377.83371094 273.97438965 -377.66742188 272.9487793 -377.49609375 271.89208984 C-366.20620048 202.86693684 -330.82969611 129.18286232 -275.953125 83.64453125 C-273.57217133 81.63976826 -271.33193281 79.50514128 -269.0625 77.375 C-223.15035559 35.68249026 -163.73784763 10.00708659 -103 0 C-102.05898438 -0.16516113 -101.11796875 -0.33032227 -100.1484375 -0.50048828 C-68.12765698 -5.95191342 -31.9689805 -5.58755964 0 0 Z " fill="#D2FA51" transform="translate(381,3)"/>
<path d="M0 0 C24.75 0 49.5 0 75 0 C75 5.57536663 74.87434216 9.62461848 73.828125 14.90234375 C73.57788574 16.19229248 73.32764648 17.48224121 73.06982422 18.8112793 C72.93606384 19.48411957 72.80230347 20.15695984 72.66448975 20.85018921 C71.95502205 24.42296655 71.2704176 28.00048962 70.5859375 31.578125 C70.44829987 32.29562424 70.31066223 33.01312347 70.16885376 33.75236511 C68.93957495 40.21069796 67.8785995 46.69035121 66.875 53.1875 C65.61521583 61.29728048 64.21326762 69.35744492 62.64233398 77.41235352 C60.98329161 85.96711621 59.45231133 94.54377719 57.9375 103.125 C57.74057556 104.23998871 57.74057556 104.23998871 57.53967285 105.37750244 C55.94676407 114.41475623 54.4226712 123.45810365 53.03613281 132.52954102 C52.07135964 138.75372621 50.89573417 144.92870855 49.69091797 151.11035156 C48.02034065 159.74244762 46.51169359 168.40157103 45 177.0625 C42.84260097 189.4127836 40.56329297 201.72635014 38 214 C43.69200551 209.3529631 49.37393479 204.69410989 55.04272461 200.01879883 C62.78436836 193.63425598 70.55454091 187.28642297 78.34765625 180.96484375 C83.24458116 176.99220231 88.12264152 172.99662152 93 169 C94.83321648 167.49985719 96.66655146 165.99985918 98.5 164.5 C99.39589844 163.75621094 100.29179687 163.01242187 101.21484375 162.24609375 C103.12404175 160.70641795 105.07813641 159.22126962 107.06640625 157.78515625 C113.39879048 153.2941848 113.39879048 153.2941848 116.5 146.5 C116.68810504 144.66874213 116.85241544 142.83496803 117 141 C117.39549456 138.62138272 117.81525822 136.24675793 118.25 133.875 C118.50809352 132.39718447 118.7658817 130.91931559 119.0234375 129.44140625 C119.8845316 124.58450077 120.80120784 119.73875846 121.72122192 114.89271545 C124.39900295 100.78727736 126.92966779 86.67522644 129.24780273 72.50561523 C130.38166823 65.60721215 131.58689622 58.73411284 132.9375 51.875 C135.20616852 40.3512086 137.07629477 28.75947494 138.98217773 17.17138672 C139.10824402 16.40591522 139.2343103 15.64044373 139.36419678 14.85177612 C139.60172732 13.40769254 139.83839324 11.96346637 140.07403564 10.51907349 C140.65278299 6.99460317 141.29919075 3.50404627 142 0 C167.08 0 192.16 0 218 0 C215.75056689 15.74603175 215.75056689 15.74603175 214.703125 21.609375 C214.58918396 22.2512677 214.47524292 22.8931604 214.35784912 23.55450439 C213.99072309 25.62006062 213.62036736 27.68502277 213.25 29.75 C212.98542629 31.23563244 212.72110933 32.72131063 212.45703125 34.20703125 C211.9104893 37.28077528 211.36286543 40.35432353 210.81445312 43.42773438 C209.65770299 49.915295 208.51451795 56.40524316 207.37097168 62.8951416 C206.74793315 66.43020358 206.12391456 69.96509255 205.5 73.5 C205.24999536 74.91666585 204.99999536 76.33333251 204.75 77.75 C173.24999995 256.2500003 173.24999995 256.2500003 172.89581585 258.25704098 C172.64674101 259.66846668 172.39766719 261.07989256 172.14859486 262.4913187 C171.53054315 265.99364257 170.91247458 269.49596346 170.2943573 272.99827576 C169.0737991 279.91421715 167.85351003 286.83020571 166.6340332 293.74633789 C163.25722801 312.89501602 159.87548378 332.04282047 156.47472954 351.18726158 C155.74856246 355.27541416 155.02333912 359.36372996 154.30004883 363.45239258 C153.58188163 367.51194513 152.86153579 371.57110536 152.1396122 375.62999153 C151.86891543 377.15409675 151.59899434 378.67833997 151.32988548 380.20272636 C150.95924339 382.30146395 150.58580489 384.39968542 150.21166992 386.49780273 C150.00104416 387.68542709 149.7904184 388.87305145 149.57341003 390.09666443 C149 393 149 393 148 396 C123.25 396 98.5 396 73 396 C75.30006525 376.44944536 75.30006525 376.44944536 76.875 367.8125 C77.04717041 366.8445752 77.21934082 365.87665039 77.39672852 364.87939453 C77.92513834 361.91847328 78.46104482 358.95901847 79 356 C79.16258301 355.10684082 79.32516602 354.21368164 79.49267578 353.29345703 C80.13654662 349.76101001 80.78076564 346.22863415 81.42919922 342.69702148 C82.84825476 334.93342766 84.1752671 327.15516137 85.5 319.375 C87.03882899 310.34681321 88.69226965 301.36136143 90.55078125 292.39404297 C92.11103065 284.73277804 93.30024628 277.02135305 94.49584961 269.29614258 C95.5395374 262.63615155 96.7476083 256.03610733 98.125 249.4375 C99.88695546 240.9943724 101.0895648 232.57725796 102 224 C101.33355469 224.54527344 100.66710937 225.09054687 99.98046875 225.65234375 C95.15364583 229.6015625 90.32682292 233.55078125 85.5 237.5 C84.58476562 238.24894531 83.66953125 238.99789062 82.7265625 239.76953125 C80.97182216 241.20499935 79.21664845 242.63993796 77.4609375 244.07421875 C71.7965921 248.70323818 66.14559447 253.34813906 60.5 258 C54.86366837 262.64422854 49.22264238 267.28236462 43.56640625 271.90234375 C41.71813945 273.41302757 39.87204748 274.92637362 38.02734375 276.44140625 C37.04894531 277.24449219 36.07054687 278.04757812 35.0625 278.875 C33.74958984 279.95394531 33.74958984 279.95394531 32.41015625 281.0546875 C30 283 30 283 27.8125 284.1875 C24.79817142 287.20182858 24.62869585 291.02864252 23.9375 295.125 C23.68891235 296.47960327 23.68891235 296.47960327 23.43530273 297.86157227 C22.94149709 300.5719 22.46939983 303.28535546 22 306 C21.754138 307.36095507 21.50688959 308.72166092 21.2578125 310.08203125 C20.63726938 313.52290797 20.03596304 316.96611346 19.44482422 320.41210938 C18.92669802 323.426455 18.40279628 326.43977584 17.87890625 329.453125 C16.11076251 339.64570628 14.34785408 349.838688 12.671875 360.046875 C12.56269745 360.7099617 12.4535199 361.3730484 12.34103394 362.05622864 C11.81890261 365.22845715 11.30012557 368.40115506 10.78759766 371.57495117 C9.43790154 379.80169756 7.75168632 387.82546386 6 396 C-19.08 396 -44.16 396 -70 396 C-67.75384615 380.27692308 -67.75384615 380.27692308 -66.5625 373.6875 C-66.30332073 372.24350119 -66.0442081 370.79949042 -65.78515625 369.35546875 C-65.65512207 368.63536621 -65.52508789 367.91526367 -65.39111328 367.17333984 C-64.75116083 363.61724951 -64.12623827 360.05852617 -63.5 356.5 C-63.25007431 355.08332022 -63.00007425 353.66665356 -62.75 352.25 C-62.62625 351.54875 -62.5025 350.8475 -62.375 350.125 C-62 348 -61.625 345.875 -61.25 343.75 C-61.12641113 343.0494751 -61.00282227 342.3489502 -60.87548828 341.62719727 C-60.62412038 340.20316051 -60.37249062 338.77916996 -60.12060547 337.35522461 C-59.51442958 333.92661557 -58.91314862 330.49736013 -58.3203125 327.06640625 C-57.26345095 320.96628875 -56.18145104 314.87444698 -54.98046875 308.80078125 C-52.14935801 294.46576517 -49.61887869 280.09479101 -47.1875 265.6875 C-44.51944539 249.88465065 -41.81105787 234.09059541 -39 218.3125 C-38.83626892 217.39301575 -38.67253784 216.47353149 -38.50384521 215.52618408 C-36.65679954 205.1643373 -34.78680255 194.80680667 -32.89453125 184.453125 C-32.72116241 183.50443542 -32.54779358 182.55574585 -32.36917114 181.57830811 C-30.95480963 173.84025291 -30.95480963 173.84025291 -30.30187988 170.27185059 C-27.96710886 157.49987842 -25.74658162 144.71601082 -23.65161133 131.90258789 C-22.39606781 124.25654699 -21.00970074 116.64834731 -19.51855469 109.04516602 C-18.03408113 101.38703763 -16.76372792 93.69725188 -15.5 86 C-13.96589623 76.6559134 -12.34389625 67.34444723 -10.51953125 58.05297852 C-8.79991388 49.18577153 -7.35538628 40.27348108 -5.92578125 31.35546875 C-4.2133055 20.82776549 -2.09708254 10.4854127 0 0 Z " fill="#052326" transform="translate(256,132)"/>
</svg>
