<?xml version="1.0" encoding="UTF-8"?>
<svg version="1.1" xmlns="http://www.w3.org/2000/svg" width="592" height="644">
<path d="M0 0 C4.62 0 9.24 0 14 0 C14 0.66 14 1.32 14 2 C18.62 2 23.24 2 28 2 C28 2.66 28 3.32 28 4 C30.97 4 33.94 4 37 4 C37 4.66 37 5.32 37 6 C38.98 6 40.96 6 43 6 C43 6.66 43 7.32 43 8 C45.97 8.33 48.94 8.66 52 9 C52 9.66 52 10.32 52 11 C53.32 11 54.64 11 56 11 C56 11.66 56 12.32 56 13 C56.99 13 57.98 13 59 13 C59 13.66 59 14.32 59 15 C60.32 15 61.64 15 63 15 C63 15.66 63 16.32 63 17 C64.32 17 65.64 17 67 17 C67 17.66 67 18.32 67 19 C67.66 19 68.32 19 69 19 C69 19.66 69 20.32 69 21 C69.66 21 70.32 21 71 21 C71 21.66 71 22.32 71 23 C72.65 23.33 74.3 23.66 76 24 C76 24.66 76 25.32 76 26 C76.66 26 77.32 26 78 26 C78 26.66 78 27.32 78 28 C78.66 28 79.32 28 80 28 C80 28.66 80 29.32 80 30 C80.66 30 81.32 30 82 30 C82 30.66 82 31.32 82 32 C82.66 32 83.32 32 84 32 C84 32.66 84 33.32 84 34 C84.66 34 85.32 34 86 34 C86 34.66 86 35.32 86 36 C86.66 36 87.32 36 88 36 C89.625 37.375 89.625 37.375 91 39 C91 39.66 91 40.32 91 41 C91.66 41 92.32 41 93 41 C93 42.32 93 43.64 93 45 C93.66 45 94.32 45 95 45 C95 45.66 95 46.32 95 47 C95.66 47 96.32 47 97 47 C97 48.32 97 49.64 97 51 C97.66 51 98.32 51 99 51 C99 51.66 99 52.32 99 53 C99.66 53 100.32 53 101 53 C104 59.5 104 59.5 104 64 C104.66 64 105.32 64 106 64 C106 65.32 106 66.64 106 68 C106.66 68 107.32 68 108 68 C108 69.65 108 71.3 108 73 C108.66 73 109.32 73 110 73 C110 74.32 110 75.64 110 77 C110.66 77 111.32 77 112 77 C112 78.98 112 80.96 112 83 C112.66 83 113.32 83 114 83 C114 85.31 114 87.62 114 90 C114.66 90 115.32 90 116 90 C116.06058594 90.63808594 116.12117188 91.27617187 116.18359375 91.93359375 C116.30927734 93.17302734 116.30927734 93.17302734 116.4375 94.4375 C116.51871094 95.26121094 116.59992188 96.08492188 116.68359375 96.93359375 C116.78930815 98.98662025 116.78930815 98.98662025 118 100 C119.32512985 108.95966124 119.15548876 118.10917641 119.13037109 127.14477539 C119.12501624 129.430569 119.13034687 131.71616548 119.13671875 134.00195312 C119.14024645 142.71360085 118.83573032 151.32001734 118 160 C117.34 160 116.68 160 116 160 C116 162.64 116 165.28 116 168 C115.34 168 114.68 168 114 168 C114 170.31 114 172.62 114 175 C113.34 175 112.68 175 112 175 C112 176.98 112 178.96 112 181 C111.34 181 110.68 181 110 181 C110 182.65 110 184.3 110 186 C109.34 186 108.68 186 108 186 C108 187.32 108 188.64 108 190 C107.34 190 106.68 190 106 190 C106 191.32 106 192.64 106 194 C105.34 194 104.68 194 104 194 C103.67 196.31 103.34 198.62 103 201 C102.34 201 101.68 201 101 201 C101 201.66 101 202.32 101 203 C100.34 203 99.68 203 99 203 C99 204.32 99 205.64 99 207 C98.34 207 97.68 207 97 207 C97 207.66 97 208.32 97 209 C96.34 209 95.68 209 95 209 C95 209.66 95 210.32 95 211 C94.34 211 93.68 211 93 211 C93 211.66 93 212.32 93 213 C92.34 213 91.68 213 91 213 C91 213.66 91 214.32 91 215 C89.625 216.625 89.625 216.625 88 218 C87.34 218 86.68 218 86 218 C86 218.66 86 219.32 86 220 C85.34 220 84.68 220 84 220 C84 220.66 84 221.32 84 222 C83.34 222 82.68 222 82 222 C82 222.66 82 223.32 82 224 C80.68 224 79.36 224 78 224 C78 224.66 78 225.32 78 226 C77.34 226 76.68 226 76 226 C76 226.66 76 227.32 76 228 C70.89665983 229.905247 66.53657294 231.42589023 61 231 C61 231.66 61 232.32 61 233 C35.92 233 10.84 233 -15 233 C-15 233.66 -15 234.32 -15 235 C-62.85 235 -110.7 235 -160 235 C-160 237.64 -160 240.28 -160 243 C-114.13 243 -68.26 243 -21 243 C-21 264.45 -21 285.9 -21 308 C-21.66 308 -22.32 308 -23 308 C-23 311.63 -23 315.26 -23 319 C-23.66 319 -24.32 319 -25 319 C-25 320.32 -25 321.64 -25 323 C-25.66 323 -26.32 323 -27 323 C-27 323.66 -27 324.32 -27 325 C-27.66 325 -28.32 325 -29 325 C-29 325.66 -29 326.32 -29 327 C-29.99 327 -30.98 327 -32 327 C-32 327.66 -32 328.32 -32 329 C-35.72965139 331.03435531 -37.66905042 332 -42 332 C-42 332.66 -42 333.32 -42 334 C-42.99 334 -43.98 334 -45 334 C-45 334.66 -45 335.32 -45 336 C-46.98 336 -48.96 336 -51 336 C-51 336.66 -51 337.32 -51 338 C-52.32 338 -53.64 338 -55 338 C-55 338.66 -55 339.32 -55 340 C-59.50353262 341.75747614 -63.17639811 342.19294408 -68 342 C-68 342.66 -68 343.32 -68 344 C-69.98 344 -71.96 344 -74 344 C-74 344.66 -74 345.32 -74 346 C-79.38490641 346.91657981 -84.54230189 347.11138159 -90 347 C-90 347.66 -90 348.32 -90 349 C-93.96 349 -97.92 349 -102 349 C-102 349.66 -102 350.32 -102 351 C-107.94 351 -113.88 351 -120 351 C-120 351.66 -120 352.32 -120 353 C-134.52 353 -149.04 353 -164 353 C-164 352.34 -164 351.68 -164 351 C-168.95 351 -173.9 351 -179 351 C-179 350.34 -179 349.68 -179 349 C-182.96 349 -186.92 349 -191 349 C-191 348.34 -191 347.68 -191 347 C-195.29 346.67 -199.58 346.34 -204 346 C-204 345.34 -204 344.68 -204 344 C-205.65 344 -207.3 344 -209 344 C-209 343.34 -209 342.68 -209 342 C-210.32 342 -211.64 342 -213 342 C-213 341.34 -213 340.68 -213 340 C-214.32 340 -215.64 340 -217 340 C-217 339.34 -217 338.68 -217 338 C-218.32 338 -219.64 338 -221 338 C-221 337.34 -221 336.68 -221 336 C-221.99 336 -222.98 336 -224 336 C-224 335.34 -224 334.68 -224 334 C-224.66 334 -225.32 334 -226 334 C-226 333.34 -226 332.68 -226 332 C-227.98 331.67 -229.96 331.34 -232 331 C-232 330.34 -232 329.68 -232 329 C-232.66 329 -233.32 329 -234 329 C-234 328.34 -234 327.68 -234 327 C-234.66 327 -235.32 327 -236 327 C-239 321.25 -239 321.25 -239 319 C-239.66 319 -240.32 319 -241 319 C-241 318.01 -241 317.02 -241 316 C-241.66 316 -242.32 316 -243 316 C-243 314.68 -243 313.36 -243 312 C-243.66 312 -244.32 312 -245 312 C-245 310.02 -245 308.04 -245 306 C-245.66 306 -246.32 306 -247 306 C-247 303.69 -247 301.38 -247 299 C-247.66 299 -248.32 299 -249 299 C-249 296.36 -249 293.72 -249 291 C-249.66 291 -250.32 291 -251 291 C-251.06058594 290.21753906 -251.12117187 289.43507813 -251.18359375 288.62890625 C-251.30927734 287.11103516 -251.30927734 287.11103516 -251.4375 285.5625 C-251.55931641 284.04849609 -251.55931641 284.04849609 -251.68359375 282.50390625 C-251.73211468 280.06359221 -251.73211468 280.06359221 -253 279 C-253.2561764 276.34651849 -253.43451124 273.7236655 -253.5625 271.0625 C-253.6042334 270.20003662 -253.6459668 269.33757324 -253.68896484 268.44897461 C-254.4682112 249.85043147 -254.4207668 231.09522842 -253.5625 212.5 C-253.52334473 211.64672119 -253.48418945 210.79344238 -253.44384766 209.91430664 C-253.1337317 204.2674634 -253.1337317 204.2674634 -252 202 C-251.77049681 199.795636 -251.58924067 197.58607827 -251.4375 195.375 C-251.35371094 194.18648437 -251.26992187 192.99796875 -251.18359375 191.7734375 C-251.12300781 190.85820312 -251.06242188 189.94296875 -251 189 C-250.34 189 -249.68 189 -249 189 C-249 186.03 -249 183.06 -249 180 C-248.34 180 -247.68 180 -247 180 C-247 177.36 -247 174.72 -247 172 C-246.34 172 -245.68 172 -245 172 C-245 170.35 -245 168.7 -245 167 C-244.34 167 -243.68 167 -243 167 C-243 165.02 -243 163.04 -243 161 C-242.34 161 -241.68 161 -241 161 C-241 159.35 -241 157.7 -241 156 C-240.34 156 -239.68 156 -239 156 C-238.95101562 155.38511719 -238.90203125 154.77023437 -238.8515625 154.13671875 C-238.77679688 153.32847656 -238.70203125 152.52023437 -238.625 151.6875 C-238.52058594 150.48673828 -238.52058594 150.48673828 -238.4140625 149.26171875 C-238 147 -238 147 -236 144 C-235.34 144 -234.68 144 -234 144 C-234 143.01 -234 142.02 -234 141 C-233.34 141 -232.68 141 -232 141 C-232 140.34 -232 139.68 -232 139 C-231.34 139 -230.68 139 -230 139 C-230 138.34 -230 137.68 -230 137 C-229.34 137 -228.68 137 -228 137 C-228 135.68 -228 134.36 -228 133 C-226.68 133 -225.36 133 -224 133 C-223.67 131.68 -223.34 130.36 -223 129 C-221.68 129 -220.36 129 -219 129 C-219 128.34 -219 127.68 -219 127 C-214.05 126.505 -214.05 126.505 -209 126 C-209 125.34 -209 124.68 -209 124 C-206.69 124 -204.38 124 -202 124 C-202 123.34 -202 122.68 -202 122 C-198.37 122 -194.74 122 -191 122 C-191 121.34 -191 120.68 -191 120 C-168.23 120 -145.46 120 -122 120 C-122 120.66 -122 121.32 -122 122 C-106.82 122 -91.64 122 -76 122 C-76 121.34 -76 120.68 -76 120 C-71.71 120 -67.42 120 -63 120 C-63 119.34 -63 118.68 -63 118 C-60.69 118 -58.38 118 -56 118 C-56 117.34 -56 116.68 -56 116 C-54.02 116 -52.04 116 -50 116 C-50 115.34 -50 114.68 -50 114 C-48.58603098 113.49242138 -47.16868271 112.99425075 -45.75 112.5 C-44.96109375 112.2215625 -44.1721875 111.943125 -43.359375 111.65625 C-41 111 -41 111 -37 111 C-37 110.34 -37 109.68 -37 109 C-36.34 109 -35.68 109 -35 109 C-35 108.34 -35 107.68 -35 107 C-33.68 107 -32.36 107 -31 107 C-30.67 105.68 -30.34 104.36 -30 103 C-29.34 103 -28.68 103 -28 103 C-28 102.34 -28 101.68 -28 101 C-27.34 101 -26.68 101 -26 101 C-26 100.34 -26 99.68 -26 99 C-25.34 99 -24.68 99 -24 99 C-24 98.34 -24 97.68 -24 97 C-22.68 96.67 -21.36 96.34 -20 96 C-20 94.68 -20 93.36 -20 92 C-19.34 92 -18.68 92 -18 92 C-18 90.68 -18 89.36 -18 88 C-17.34 88 -16.68 88 -16 88 C-15.67 85.69 -15.34 83.38 -15 81 C-14.34 81 -13.68 81 -13 81 C-13 79.68 -13 78.36 -13 77 C-12.34 77 -11.68 77 -11 77 C-11 75.02 -11 73.04 -11 71 C-10.34 71 -9.68 71 -9 71 C-9 68.69 -9 66.38 -9 64 C-8.34 64 -7.68 64 -7 64 C-7 60.7 -7 57.4 -7 54 C-6.34 54 -5.68 54 -5 54 C-5 50.37 -5 46.74 -5 43 C-4.34 43 -3.68 43 -3 43 C-3 38.71 -3 34.42 -3 30 C-2.34 30 -1.68 30 -1 30 C-1.01160156 28.92363281 -1.02320313 27.84726563 -1.03515625 26.73828125 C-1.10123448 17.75060925 -0.82365687 8.95726849 0 0 Z " fill="#144F5B" transform="translate(430,166)"/>
</svg>
