<?xml version="1.0" encoding="UTF-8"?>
<svg version="1.1" xmlns="http://www.w3.org/2000/svg" width="1024" height="1024">
<path d="M0 0 C1.29113205 -0.00701431 2.5822641 -0.01402863 3.91252136 -0.02125549 C8.06147754 -0.04067324 12.21037797 -0.04568997 16.359375 -0.046875 C17.06603931 -0.04731686 17.77270363 -0.04775871 18.50078201 -0.04821396 C39.84664366 -0.05521616 60.9257054 0.24912441 82.109375 3.203125 C83.43989785 3.3821599 84.7704657 3.5608607 86.10107422 3.73925781 C104.6391509 6.25702583 122.93864425 9.7310895 141.109375 14.203125 C142.16753418 14.46319336 143.22569336 14.72326172 144.31591797 14.99121094 C206.57539978 30.53467821 266.3639466 58.18867023 318.109375 96.203125 C319.17027344 96.98042969 320.23117187 97.75773437 321.32421875 98.55859375 C324.27308078 100.74795912 327.19641124 102.966247 330.109375 105.203125 C330.64594727 105.61353027 331.18251953 106.02393555 331.73535156 106.44677734 C341.17126112 113.68278753 350.22140581 121.30573471 359.109375 129.203125 C360.08519531 130.06550781 361.06101562 130.92789063 362.06640625 131.81640625 C369.95207879 138.94201397 377.46045327 146.45009778 384.984375 153.953125 C385.53075623 154.49682739 386.07713745 155.04052979 386.64007568 155.60070801 C392.68251618 161.62068084 398.59320364 167.69029624 404.109375 174.203125 C405.05825378 175.28659652 406.00872421 176.36867661 406.9609375 177.44921875 C414.76144926 186.39191353 422.03348377 195.67925601 429.109375 205.203125 C429.65770996 205.94111328 430.20604492 206.67910156 430.77099609 207.43945312 C449.82449174 233.20224137 465.73907905 260.58080714 480.109375 289.203125 C480.7588208 290.48799805 480.7588208 290.48799805 481.42138672 291.79882812 C508.64685607 346.00277288 523.69760953 406.93903409 529.109375 467.203125 C529.19525879 468.1497702 529.28114258 469.09641541 529.36962891 470.07174683 C530.04621787 478.08843185 530.28318873 486.05061093 530.3125 494.09375 C530.32302147 496.03044807 530.32302147 496.03044807 530.33375549 498.00627136 C530.35317324 502.15522754 530.35818997 506.30412797 530.359375 510.453125 C530.35981686 511.15978931 530.36025871 511.86645363 530.36071396 512.59453201 C530.36771616 533.94039366 530.06337559 555.0194554 527.109375 576.203125 C526.9303401 577.53364785 526.7516393 578.8642157 526.57324219 580.19482422 C524.05547417 598.7329009 520.5814105 617.03239425 516.109375 635.203125 C515.84930664 636.26128418 515.58923828 637.31944336 515.32128906 638.40966797 C499.77782179 700.66914978 472.12382977 760.4576966 434.109375 812.203125 C433.33207031 813.26402344 432.55476562 814.32492187 431.75390625 815.41796875 C429.56454088 818.36683078 427.346253 821.29016124 425.109375 824.203125 C424.69896973 824.73969727 424.28856445 825.27626953 423.86572266 825.82910156 C416.62971247 835.26501112 409.00676529 844.31515581 401.109375 853.203125 C400.24699219 854.17894531 399.38460937 855.15476562 398.49609375 856.16015625 C391.37048603 864.04582879 383.86240222 871.55420327 376.359375 879.078125 C375.81567261 879.62450623 375.27197021 880.17088745 374.71179199 880.73382568 C369.24129722 886.22473737 363.76296322 891.65421573 357.85742188 896.68310547 C356.11674027 898.19672051 354.47595129 899.77690133 352.8359375 901.3984375 C351.80229781 902.37522701 350.76844695 903.35179311 349.734375 904.328125 C349.23421875 904.84632813 348.7340625 905.36453125 348.21875 905.8984375 C346.53351409 907.44114102 345.25697666 908.41047087 343.109375 909.203125 C339.51083389 908.88119185 336.42599321 907.58321823 333.109375 906.203125 C332.1901123 905.84927734 331.27084961 905.49542969 330.32373047 905.13085938 C284.92806114 887.33103897 242.32447282 861.72715838 205.109375 830.203125 C204.04332025 829.31077782 202.97689385 828.41887452 201.91015625 827.52734375 C196.05521439 822.61963779 190.28006838 817.63998612 184.63378906 812.49194336 C183.08807495 811.09048593 181.53464854 809.69740504 179.96826172 808.3190918 C172.82102894 802.0086348 166.07799193 795.3244245 159.34936523 788.57348633 C157.41827953 786.63701951 155.48187618 784.70598544 153.54492188 782.77539062 C147.51954224 776.75325336 141.60804166 770.71680569 136.109375 764.203125 C134.65491983 762.59544127 133.19716605 760.99072785 131.734375 759.390625 C123.55247003 750.31036897 116.0104529 740.68241099 108.52441406 731.02587891 C107.61039608 729.84850515 106.69328926 728.67351989 105.77246094 727.50146484 C98.35069011 718.03447461 91.60059215 708.13792195 84.921875 698.140625 C84.29238449 697.20101929 84.29238449 697.20101929 83.650177 696.24243164 C77.51103405 687.06277531 71.70471979 677.72353109 66.109375 668.203125 C65.63669189 667.40060303 65.16400879 666.59808105 64.67700195 665.77124023 C58.97762832 655.98382802 53.90693011 645.89749101 48.984375 635.703125 C48.54333435 634.79306702 48.54333435 634.79306702 48.09338379 633.86462402 C47.25779829 632.13610547 46.42952175 630.40405946 45.6015625 628.671875 C45.12058105 627.66576172 44.63959961 626.65964844 44.14404297 625.62304688 C43.109375 623.203125 43.109375 623.203125 43.109375 621.203125 C44.08994873 620.88674072 45.07052246 620.57035645 46.08081055 620.24438477 C73.54266391 611.39651477 73.54266391 611.39651477 100.109375 600.203125 C100.93743652 599.81447266 101.76549805 599.42582031 102.61865234 599.02539062 C130.52989041 585.82692968 156.53826884 568.36362251 178.9765625 547.125 C181.27064404 544.95529414 183.63085787 542.88399507 186.02734375 540.828125 C190.12407156 537.26176842 193.85730007 533.43493869 197.546875 529.453125 C198.20083252 528.74994141 198.85479004 528.04675781 199.52856445 527.32226562 C204.6306381 521.79749387 209.50594228 516.15292071 214.109375 510.203125 C214.55845215 509.6265918 215.0075293 509.05005859 215.47021484 508.45605469 C245.4244327 469.85639191 266.709398 425.24137954 276.109375 377.203125 C276.35494141 376.04055176 276.35494141 376.04055176 276.60546875 374.85449219 C285.53623659 331.69526498 279.1697361 282.29797736 254.80322266 245.21533203 C252.11676896 241.35788659 249.17807268 237.7661424 246.109375 234.203125 C245.33207031 233.2646875 244.55476562 232.32625 243.75390625 231.359375 C220.12876883 203.91875861 184.17770475 190.78380174 149.109375 186.203125 C148.38476074 186.10741211 147.66014648 186.01169922 146.91357422 185.91308594 C112.35000932 181.89423426 78.35415141 186.8316279 47.109375 202.203125 C46.04275635 202.71915283 46.04275635 202.71915283 44.95458984 203.24560547 C28.40812319 211.32118476 13.80741237 221.9588088 0.109375 234.203125 C-0.44234375 234.69312988 -0.9940625 235.18313477 -1.5625 235.68798828 C-25.55855908 257.09043662 -44.87706092 284.09594724 -59.8190918 312.49487305 C-60.890625 314.203125 -60.890625 314.203125 -62.890625 315.203125 C-63.06283569 314.23209839 -63.06283569 314.23209839 -63.23852539 313.24145508 C-69.14534762 280.51587085 -79.35474971 251.30189117 -102.890625 227.203125 C-103.55707031 226.47480469 -104.22351563 225.74648437 -104.91015625 224.99609375 C-110.50426933 219.0251141 -117.06305932 214.62143245 -123.890625 210.203125 C-124.81488281 209.5946875 -125.73914063 208.98625 -126.69140625 208.359375 C-155.45825315 190.45638683 -190.86903383 185.65198524 -224.078125 184.640625 C-225.42513968 184.59729854 -226.77214501 184.55368052 -228.11914062 184.50976562 C-231.37622326 184.40469844 -234.63338347 184.30310448 -237.890625 184.203125 C-237.94178467 184.95507645 -237.99294434 185.70702789 -238.0456543 186.48176575 C-238.69117337 195.44399715 -239.65039562 204.3558595 -240.703125 213.27734375 C-240.87877901 214.77853552 -241.05431385 216.27974124 -241.22973633 217.78096008 C-241.59443572 220.89641886 -241.96109594 224.01163909 -242.32910156 227.12670898 C-242.80085192 231.12200531 -243.26672756 235.11796298 -243.73109436 239.11412334 C-244.09048558 242.20012795 -244.45334447 245.28571728 -244.81723022 248.37119484 C-244.99064186 249.8458872 -245.16286998 251.32071923 -245.33389282 252.79569054 C-245.57186695 254.84429837 -245.81459883 256.89228733 -246.05859375 258.94018555 C-246.19547607 260.10454636 -246.3323584 261.26890717 -246.47338867 262.46855164 C-246.890625 265.203125 -246.890625 265.203125 -247.890625 267.203125 C-246.65828125 267.02523438 -245.4259375 266.84734375 -244.15625 266.6640625 C-218.62516158 263.86381432 -187.68840644 270.29728549 -167.2109375 286.3125 C-166.44523437 286.93640625 -165.67953125 287.5603125 -164.890625 288.203125 C-164.24867188 288.68265625 -163.60671875 289.1621875 -162.9453125 289.65625 C-145.62856046 303.16797581 -138.50269342 327.41655946 -135.890625 348.203125 C-134.28433551 363.04745549 -134.85743203 377.74163771 -136.078125 392.578125 C-136.1755751 393.77633377 -136.1755751 393.77633377 -136.2749939 394.99874878 C-137.21236361 406.31511074 -138.46494946 417.54413734 -140.203125 428.765625 C-140.37932373 429.91272949 -140.55552246 431.05983398 -140.73706055 432.24169922 C-142.09144555 440.4890078 -143.80600229 448.64803754 -145.56396484 456.81713867 C-145.82732226 458.04299557 -146.09067968 459.26885246 -146.36201763 460.53185654 C-149.250776 473.93622879 -152.22973337 487.32041237 -155.22006559 500.70242071 C-156.04240967 504.3838583 -156.86328873 508.06562261 -157.68435669 511.74734497 C-159.2948027 518.96771757 -160.90642663 526.18782671 -162.51850986 533.40783393 C-165.80668143 548.13468204 -169.09256719 562.86204042 -172.37859535 577.58936691 C-173.19806289 581.26203332 -174.01760693 584.93468265 -174.8372097 588.60731888 C-180.91693321 615.85102755 -186.98373043 643.09759166 -193.04185635 670.34611082 C-194.69561151 677.78431873 -196.34992421 685.22240244 -198.00462341 692.66040039 C-198.23660421 693.70318224 -198.46858501 694.7459641 -198.70759553 695.8203454 C-199.6395662 700.00961163 -200.57155574 704.19887366 -201.50360858 708.3881216 C-204.25025357 720.73337665 -206.99508708 733.07903103 -209.73695517 745.42534792 C-211.46650127 753.21247871 -213.19836004 760.99909296 -214.93195868 768.78532255 C-215.93636207 773.29684877 -216.93971691 777.80860152 -217.9402504 782.3209877 C-218.86245692 786.48006039 -219.78763183 790.63846178 -220.71503961 794.79637766 C-221.04870125 796.29470398 -221.38131686 797.79326375 -221.71271288 799.2920928 C-222.16837994 801.35221036 -222.62806669 803.41139577 -223.08860779 805.47042847 C-223.34181006 806.60956633 -223.59501234 807.74870419 -223.85588741 808.92236137 C-225.41653605 815.37884658 -227.17911987 821.78498075 -228.890625 828.203125 C-195.890625 828.203125 -162.890625 828.203125 -128.890625 828.203125 C-128.230625 823.913125 -127.570625 819.623125 -126.890625 815.203125 C-126.19599401 811.6696221 -125.47979486 808.15367668 -124.71435547 804.63623047 C-124.50538383 803.66102196 -124.2964122 802.68581345 -124.08110809 801.68105316 C-123.39355959 798.47669818 -122.7006982 795.27351724 -122.0078125 792.0703125 C-121.51533179 789.77990997 -121.0232034 787.48943167 -120.53140259 785.19888306 C-119.48752742 780.34037381 -118.44136603 775.48236505 -117.39331055 770.62475586 C-115.75919633 763.05075348 -114.13006064 755.47568618 -112.50195312 747.90039062 C-110.86433366 740.28168782 -109.22652117 732.66302724 -107.5869751 725.04473877 C-103.00244425 703.74083614 -98.44601516 682.43101827 -93.90512848 661.11777496 C-93.05800563 657.14208725 -92.21036588 653.16650975 -91.36279297 649.19091797 C-89.87143024 642.19512331 -88.3807203 635.19918975 -86.890625 628.203125 C-82.01871342 628.16427042 -77.1964477 628.16261873 -72.33984375 628.60546875 C-71.39431641 628.69119141 -70.44878906 628.77691406 -69.47460938 628.86523438 C-68.51876953 628.95611328 -67.56292969 629.04699219 -66.578125 629.140625 C-65.60294922 629.22763672 -64.62777344 629.31464844 -63.62304688 629.40429688 C-58.25637432 629.90155205 -58.25637432 629.90155205 -55.890625 630.203125 C-54.83319092 630.30512207 -54.83319092 630.30512207 -53.75439453 630.40917969 C-50.85892607 631.64261739 -50.41126304 633.60425444 -49.18359375 636.44140625 C-48.68762695 637.55708984 -48.19166016 638.67277344 -47.68066406 639.82226562 C-47.42063599 640.42272705 -47.16060791 641.02318848 -46.8927002 641.6418457 C-45.49217056 644.86350462 -44.03337288 648.05846589 -42.57421875 651.25390625 C-42.27242706 651.91601105 -41.97063538 652.57811584 -41.65969849 653.26028442 C-32.24666348 673.76056533 -20.60170972 693.11011347 -8.72070312 712.24951172 C-7.18539317 714.72739056 -5.66541626 717.21319776 -4.15625 719.70703125 C6.13477581 736.61627669 17.74434204 752.75594553 29.77734375 768.46240234 C31.05133027 770.12727109 32.31583793 771.79890824 33.578125 773.47265625 C47.58401635 791.91223074 62.65965588 809.55502486 78.47900391 826.45947266 C80.25958387 828.36377067 82.03410119 830.27362278 83.80859375 832.18359375 C97.50689743 846.93805017 97.50689743 846.93805017 112.28125 860.59375 C114.13875488 862.22898934 115.87543509 863.93794293 117.609375 865.703125 C121.27225006 869.41516616 125.15086594 872.81103675 129.109375 876.203125 C130.12918651 877.0869163 131.14869488 877.97105745 132.16796875 878.85546875 C164.79009833 907.08788805 199.80498116 932.82325014 237.55859375 953.796875 C238.69852783 954.43052979 239.83846191 955.06418457 241.01293945 955.71704102 C243.30379205 956.98644305 245.59784847 958.25008256 247.89526367 959.50756836 C248.94302979 960.08643799 249.9907959 960.66530762 251.0703125 961.26171875 C252.49029541 962.03986938 252.49029541 962.03986938 253.93896484 962.83374023 C256.109375 964.203125 256.109375 964.203125 257.109375 966.203125 C239.13411849 975.56091916 220.9965393 983.82536812 202.109375 991.203125 C201.07022949 991.61014648 200.03108398 992.01716797 198.96044922 992.43652344 C162.63144061 1006.49214441 124.10358923 1015.9494928 85.46630859 1020.78125 C83.25906388 1021.05864046 81.05351209 1021.34991763 78.85009766 1021.65625 C38.63377091 1027.15348836 -5.70463595 1026.8069433 -45.890625 1021.203125 C-47.22114785 1021.0240901 -48.5517157 1020.8453893 -49.88232422 1020.66699219 C-68.4204009 1018.14922417 -86.71989425 1014.6751605 -104.890625 1010.203125 C-105.94878418 1009.94305664 -107.00694336 1009.68298828 -108.09716797 1009.41503906 C-170.35664978 993.87157179 -230.1451966 966.21757977 -281.890625 928.203125 C-282.95152344 927.42582031 -284.01242187 926.64851562 -285.10546875 925.84765625 C-288.05433078 923.65829088 -290.97766124 921.440003 -293.890625 919.203125 C-294.42719727 918.79271973 -294.96376953 918.38231445 -295.51660156 917.95947266 C-304.95251112 910.72346247 -314.00265581 903.10051529 -322.890625 895.203125 C-323.86644531 894.34074219 -324.84226562 893.47835937 -325.84765625 892.58984375 C-333.73332879 885.46423603 -341.24170327 877.95615222 -348.765625 870.453125 C-349.31200623 869.90942261 -349.85838745 869.36572021 -350.42132568 868.80554199 C-356.46376618 862.78556916 -362.37445364 856.71595376 -367.890625 850.203125 C-368.83950378 849.11965348 -369.78997421 848.03757339 -370.7421875 846.95703125 C-378.54269926 838.01433647 -385.81473377 828.72699399 -392.890625 819.203125 C-393.43895996 818.46513672 -393.98729492 817.72714844 -394.55224609 816.96679688 C-413.60574174 791.20400863 -429.52032905 763.82544286 -443.890625 735.203125 C-444.5400708 733.91825195 -444.5400708 733.91825195 -445.20263672 732.60742188 C-472.42810607 678.40347712 -487.47885953 617.46721591 -492.890625 557.203125 C-492.97650879 556.2564798 -493.06239258 555.30983459 -493.15087891 554.33450317 C-493.82746787 546.31781815 -494.06443873 538.35563907 -494.09375 530.3125 C-494.10427147 528.37580193 -494.10427147 528.37580193 -494.11500549 526.39997864 C-494.13442324 522.25102246 -494.13943997 518.10212203 -494.140625 513.953125 C-494.14106686 513.24646069 -494.14150871 512.53979637 -494.14196396 511.81171799 C-494.14896616 490.46585634 -493.84462559 469.3867946 -490.890625 448.203125 C-490.7115901 446.87260215 -490.5328893 445.5420343 -490.35449219 444.21142578 C-487.83672417 425.6733491 -484.3626605 407.37385575 -479.890625 389.203125 C-479.50052246 387.61588623 -479.50052246 387.61588623 -479.10253906 385.99658203 C-463.55907179 323.73710022 -435.90507977 263.9485534 -397.890625 212.203125 C-397.11332031 211.14222656 -396.33601563 210.08132812 -395.53515625 208.98828125 C-393.34579088 206.03941922 -391.127503 203.11608876 -388.890625 200.203125 C-388.48021973 199.66655273 -388.06981445 199.12998047 -387.64697266 198.57714844 C-380.41096247 189.14123888 -372.78801529 180.09109419 -364.890625 171.203125 C-364.02824219 170.22730469 -363.16585937 169.25148437 -362.27734375 168.24609375 C-355.15173603 160.36042121 -347.64365222 152.85204673 -340.140625 145.328125 C-339.59692261 144.78174377 -339.05322021 144.23536255 -338.49304199 143.67242432 C-332.47306916 137.62998382 -326.40345376 131.71929636 -319.890625 126.203125 C-318.80715348 125.25424622 -317.72507339 124.30377579 -316.64453125 123.3515625 C-307.70183647 115.55105074 -298.41449399 108.27901623 -288.890625 101.203125 C-288.15263672 100.65479004 -287.41464844 100.10645508 -286.65429688 99.54150391 C-260.89150863 80.48800826 -233.51294286 64.57342095 -204.890625 50.203125 C-203.60575195 49.5536792 -203.60575195 49.5536792 -202.29492188 48.89111328 C-148.09097712 21.66564393 -87.15471591 6.61489047 -26.890625 1.203125 C-25.9439798 1.11724121 -24.99733459 1.03135742 -24.02200317 0.94287109 C-16.00531815 0.26628213 -8.04313907 0.02931127 0 0 Z " fill="#0173DD" transform="translate(493.890625,-0.203125)"/>
<path d="M0 0 C14.99422648 14.45486581 19.99731323 34.15616822 20.375 54.375 C19.80310168 103.3866863 -4.54193098 150.71808858 -35.8125 187.3125 C-36.44929687 188.06144531 -37.08609375 188.81039062 -37.7421875 189.58203125 C-49.06463813 202.5125342 -61.24956874 214.95942895 -75.15771484 225.10205078 C-76.80494131 226.30697093 -78.42821141 227.53949182 -80.05078125 228.77734375 C-122.1062464 260.37665112 -174.6754465 274.141479 -226.75 267.9375 C-227.81549072 267.81149414 -228.88098145 267.68548828 -229.97875977 267.55566406 C-237.409474 266.581184 -237.409474 266.581184 -240.8125 264.3125 C-220.35285218 186.47373698 -193.73936246 104.43267317 -141.8125 41.3125 C-141.35987793 40.75981445 -140.90725586 40.20712891 -140.44091797 39.63769531 C-119.07184551 13.68283001 -92.34480758 -10.42757409 -57.75 -15.125 C-37.24551666 -17.09814969 -16.0629783 -13.79012151 0 0 Z " fill="#0173DD" transform="translate(662.8125,283.6875)"/>
</svg>
