<?xml version="1.0" encoding="UTF-8"?>
<svg version="1.1" xmlns="http://www.w3.org/2000/svg" width="288" height="288">
<path d="M0 0 C0.98226562 0.65742187 0.98226562 0.65742187 1.984375 1.328125 C12.76846008 9.53985951 19.72827121 23.9493098 22 37 C22.96845856 50.77081283 22.49519408 63.89887514 18 77 C17.649375 78.03898437 17.29875 79.07796875 16.9375 80.1484375 C8.89555052 101.42609551 -7.37538274 120.35600778 -28 130 C-53.6535198 140.72759813 -86.57886041 141.44809495 -112.52734375 130.98046875 C-119.70414282 127.19828227 -121.73742697 120.77530034 -124.19140625 113.4375 C-127.04785472 103.5302936 -127.39610805 93.56216271 -127.4375 83.3125 C-127.4475708 82.03093018 -127.4576416 80.74936035 -127.46801758 79.42895508 C-127.25078225 55.34972863 -119.30972003 33.15146827 -102.67578125 15.5390625 C-75.87261311 -10.48422786 -32.5193607 -22.00411832 0 0 Z " fill="#F89939" transform="translate(242,83)"/>
<path d="M0 0 C11.34461908 8.56600948 17.52165716 19.09486123 20 33 C21.84619729 59.74821564 21.84619729 59.74821564 16 70 C7.05594963 78.38320232 -5.20981887 77.56181036 -16.734375 77.28125 C-29.17497677 76.75373332 -40.98327324 72.50977116 -50.25 63.93359375 C-61.67389519 51.31120955 -67.19821056 37.46511381 -66.40625 20.36328125 C-65.60472982 9.90121652 -60.72461431 2.95980102 -53 -4 C-50.43054487 -5.75405608 -47.92178582 -6.95302675 -45 -8 C-43.96875 -8.4125 -42.9375 -8.825 -41.875 -9.25 C-26.76815889 -12.17390473 -12.69106101 -8.45443085 0 0 Z " fill="#3499CD" transform="translate(90,142)"/>
</svg>
