<?xml version="1.0" encoding="UTF-8"?>
<svg version="1.1" xmlns="http://www.w3.org/2000/svg" width="1280" height="1280">
<path d="M0 0 C422.4 0 844.8 0 1280 0 C1280 422.4 1280 844.8 1280 1280 C857.6 1280 435.2 1280 0 1280 C0 857.6 0 435.2 0 0 Z " fill="#000000" transform="translate(0,0)"/>
<path d="M0 0 C0.66 0 1.32 0 2 0 C35.75 58.5 35.75 58.5 37.62524414 61.75048828 C38.87435518 63.91557071 40.12354129 66.08060982 41.37280273 68.24560547 C44.51202309 73.68615706 47.64990563 79.12747216 50.78515625 84.5703125 C56.80747329 95.02206199 62.84669337 105.46299548 68.9375 115.875 C74.35921178 125.14499777 79.70204915 134.45831752 85.01922607 143.78845215 C90.22045129 152.9128284 95.48027878 162.00132774 100.78344727 171.06689453 C106.93766742 181.59084625 113.02369996 192.15380137 119.10888672 202.71777344 C122.23680148 208.14659942 125.36858448 213.57319281 128.5 219 C129.75001879 221.16665583 131.00001878 223.3333225 132.25 225.5 C133.178125 227.10875 133.178125 227.10875 134.125 228.75 C274.74999999 472.49999999 274.74999999 472.49999999 276.62524414 475.75048828 C277.87435518 477.91557071 279.12354129 480.08060982 280.37280273 482.24560547 C283.51202309 487.68615706 286.64990563 493.12747216 289.78515625 498.5703125 C295.80747329 509.02206199 301.84669337 519.46299548 307.9375 529.875 C313.35958699 539.14563931 318.70324012 548.45936699 324.02023315 557.79046631 C328.63484029 565.88707843 333.29084886 573.95788801 338 582 C343.0563104 590.63497758 348.0459413 599.30613595 353 608 C361.2513593 622.47748424 369.60859109 636.8924933 378.09375 651.234375 C378.56635254 652.03399658 379.03895508 652.83361816 379.52587891 653.6574707 C380.4010072 655.13644703 381.27816512 656.614225 382.15771484 658.09057617 C385 662.89003299 385 662.89003299 385 664 C131.56 664 -121.88 664 -383 664 C-374.49902788 648.41488444 -365.94649458 632.85331806 -356.88842773 617.58325195 C-353.1465212 611.27164761 -349.47572707 604.92004695 -345.8125 598.5625 C-345.17521973 597.45672607 -344.53793945 596.35095215 -343.88134766 595.21166992 C-341.9203862 591.8080747 -339.96011785 588.40408111 -338 585 C-335.48004706 580.62449212 -332.95930859 576.24943866 -330.4375 571.875 C-329.81584961 570.79661865 -329.19419922 569.7182373 -328.55371094 568.60717773 C-324.41377995 561.43241198 -320.2450821 554.27496657 -316.0625 547.125 C-310.98724877 538.44737759 -305.97741233 529.73394432 -301 521 C-295.4599827 511.27884383 -289.86625191 501.59105342 -284.21655273 491.93310547 C-278.06233258 481.40915375 -271.97630004 470.84619863 -265.89111328 460.28222656 C-262.76319852 454.85340058 -259.63141552 449.42680719 -256.5 444 C-255.24998121 441.83334417 -253.99998122 439.6666775 -252.75 437.5 C-225.25 389.83333333 -197.75 342.16666667 -170.25 294.5 C-169.63116943 293.42733887 -169.01233887 292.35467773 -168.37475586 291.24951172 C-167.12564482 289.08442929 -165.87645871 286.91939018 -164.62719727 284.75439453 C-161.48797691 279.31384294 -158.35009437 273.87252784 -155.21484375 268.4296875 C-148.59777108 256.9455118 -141.95366023 245.47803106 -135.26708984 234.03417969 C-129.10080946 223.47379718 -122.9950405 212.87873234 -116.89111328 202.28222656 C-113.76319852 196.85340058 -110.63141552 191.42680719 -107.5 186 C-106.24998121 183.83334417 -104.99998122 181.6666775 -103.75 179.5 C-81.25 140.5 -58.75 101.5 -36.25 62.5 C-35.32127075 60.89016235 -35.32127075 60.89016235 -34.3737793 59.24780273 C-33.1279423 57.08840605 -31.88201182 54.92906331 -30.63598633 52.76977539 C-27.44651047 47.24232403 -24.25883115 41.71384879 -21.07421875 36.18359375 C-17.95370033 30.76503723 -14.82615391 25.35058553 -11.6953125 19.93798828 C-10.0918951 17.15925484 -8.49816527 14.37517727 -6.90625 11.58984375 C-6.00032871 10.01803966 -5.09410279 8.4464111 -4.1875 6.875 C-3.5836145 5.8085022 -3.5836145 5.8085022 -2.9675293 4.72045898 C-2.03447159 3.11305967 -1.02546941 1.55007797 0 0 Z " fill="#FEFEFE" transform="translate(639,257)"/>
</svg>
