<?xml version="1.0" encoding="UTF-8"?>
<svg version="1.1" xmlns="http://www.w3.org/2000/svg" width="1024" height="1024">
<path d="M0 0 C84.48 0 168.96 0 256 0 C256 21.78 256 43.56 256 66 C265.3599231 65.98428955 265.3599231 65.98428955 274.90893555 65.96826172 C295.61608285 65.93499698 316.32323126 65.91287831 337.03039837 65.89637566 C349.5747229 65.88611038 362.11902193 65.87214212 374.66333008 65.84912109 C385.61071362 65.82904047 396.55807866 65.81624917 407.50548011 65.81182301 C413.28950628 65.80924019 419.07347959 65.80327146 424.85748863 65.78853989 C493.37377853 65.62109418 563.99734716 69.38916343 618 117 C618.98355469 117.86238281 619.96710937 118.72476563 620.98046875 119.61328125 C653.67897263 148.6988055 676.6178536 190.57005361 683 234 C683 235.98 683 237.96 683 240 C703.13 240 723.26 240 744 240 C744 324.48 744 408.96 744 496 C733.44 496 722.88 496 712 496 C712 538.24 712 580.48 712 624 C704.08 624 696.16 624 688 624 C688.01571045 626.89201172 688.0314209 629.78402344 688.04760742 632.76367188 C688.09794191 642.45851483 688.13069904 652.15336452 688.15543652 661.84830475 C688.17090832 667.71030242 688.19179562 673.57216315 688.22631836 679.43408203 C688.50825769 728.62596672 687.66130197 778.68444019 666 824 C665.62504395 824.78568359 665.25008789 825.57136719 664.86376953 826.38085938 C651.30741707 854.31789893 631.07947885 878.68637073 606 897 C605.43506836 897.41459473 604.87013672 897.82918945 604.28808594 898.25634766 C576.71881308 918.2096682 545.36917324 928.97081855 512 934.25 C511.05439209 934.40106201 510.10878418 934.55212402 509.13452148 934.70776367 C505.76298529 935.20297813 502.38482587 935.60921143 499 936 C498.29448907 936.08325858 497.58897814 936.16651715 496.86208808 936.25229871 C476.31605543 938.56964667 455.72033088 938.29408479 435.07654321 938.27610838 C429.69999785 938.27361502 424.32346901 938.28268744 418.94692993 938.29014587 C408.44345674 938.30282424 397.9400092 938.3046951 387.43652964 938.30234561 C378.88665834 938.30055417 370.33679475 938.30232968 361.78692436 938.30657005 C359.95354016 938.30746284 359.95354016 938.30746284 358.08311788 938.30837366 C355.59911883 938.30958556 353.11511978 938.3107997 350.63112073 938.31201603 C327.391491 938.32286563 304.15187581 938.32074163 280.91224527 938.31463119 C259.72260629 938.30946718 238.53301337 938.32070848 217.3433835 938.33972941 C195.51175044 938.35917417 173.68013909 938.36735204 151.84849733 938.36360615 C139.62155322 938.36170378 127.39464824 938.36408658 115.16771126 938.37832069 C104.75567731 938.39032066 94.34370658 938.39154418 83.93167163 938.37953053 C78.63535365 938.37370095 73.3391508 938.37237471 68.04284096 938.38453293 C20.51363674 938.4859868 -27.56993889 936.42081467 -71 915 C-71.78890625 914.61440918 -72.5778125 914.22881836 -73.390625 913.83154297 C-84.30082978 908.44810395 -94.43541084 902.52975547 -104 895 C-104.52190918 894.59233398 -105.04381836 894.18466797 -105.58154297 893.76464844 C-119.96270901 882.40097916 -133.66595803 869.17953211 -144 854 C-144.46712402 853.31776367 -144.93424805 852.63552734 -145.41552734 851.93261719 C-175.10324518 808.03300193 -184 756.18038367 -184 704 C-197.2 704 -210.4 704 -224 704 C-224 619.52 -224 535.04 -224 448 C-210.8 448 -197.6 448 -184 448 C-184.01571045 441.11737305 -184.01571045 441.11737305 -184.03173828 434.09570312 C-184.06510885 418.8128834 -184.08716355 403.5300621 -184.10362434 388.24721527 C-184.11385801 378.99535745 -184.12776324 369.74353457 -184.15087891 360.49169922 C-184.17105906 352.41080113 -184.18377356 344.32992839 -184.18817699 336.24900579 C-184.19074358 331.98567908 -184.19660193 327.72242477 -184.21146011 323.4591217 C-184.43173977 257.54180141 -179.24699657 188.2626198 -133 137 C-131.83233748 135.62584558 -130.66554439 134.25095145 -129.5 132.875 C-98.24782155 97.63318175 -53.52026803 75.98534829 -7 70 C-4.69 70 -2.38 70 0 70 C0 46.9 0 23.8 0 0 Z " fill="#F7F7F9" transform="translate(260,20)"/>
<path d="M0 0 C119.13 0 238.26 0 361 0 C364.96 7.92 364.96 7.92 369 16 C369.88051025 17.75465576 370.76102051 19.50931152 371.66821289 21.31713867 C373.71800288 25.40294829 375.75039447 29.49718226 377.77612305 33.5949707 C378.64473606 35.34554985 379.51856862 37.09354743 380.3972168 38.83911133 C381.68550858 41.40076711 382.95577219 43.97067246 384.22265625 46.54296875 C384.61832291 47.32004684 385.01398956 48.09712494 385.42164612 48.89775085 C388.02546259 54.24849369 388.02546259 54.24849369 387.9050293 57.80297852 C386.94741172 60.12766171 385.93736036 61.70802383 384.296875 63.609375 C383.73548828 64.27259766 383.17410156 64.93582031 382.59570312 65.61914062 C381.68208008 66.67391602 381.68208008 66.67391602 380.75 67.75 C379.46097436 69.27387372 378.17457893 70.79997563 376.890625 72.328125 C376.23771484 73.10478516 375.58480469 73.88144531 374.91210938 74.68164062 C372.00275425 78.20912227 369.2488311 81.84693695 366.5 85.5 C361.52534433 92.08499716 356.36527348 98.48607672 351.09204102 104.83374023 C347.01470925 109.74733121 343.03724272 114.72633919 339.11279297 119.76245117 C335.63101503 124.22129111 332.07722015 128.61747278 328.5 133 C322.57524488 140.26324958 316.76729994 147.61143858 311 155 C304.69256755 163.08053205 298.3175703 171.0964614 291.83642578 179.03857422 C288.34492684 183.3241126 284.9019522 187.64311384 281.5 192 C277.0179989 197.74010668 272.44043443 203.39693246 267.8359375 209.0390625 C264.34469917 213.32451618 260.90181112 217.64329453 257.5 222 C253.55804835 227.0484644 249.5496258 232.03751462 245.5 237 C239.57534029 244.26332952 233.76730184 251.61143615 228 259 C221.69256755 267.08053205 215.3175703 275.0964614 208.83642578 283.03857422 C205.34492684 287.3241126 201.9019522 291.64311384 198.5 296 C194.0179989 301.74010668 189.44043443 307.39693246 184.8359375 313.0390625 C180.88647987 317.88697495 177.00789804 322.78516846 173.16186523 327.71533203 C170.75492173 330.79229427 168.32216807 333.84420528 165.84765625 336.8671875 C165.30109375 337.53492188 164.75453125 338.20265625 164.19140625 338.890625 C163.16969259 340.13530255 162.14535157 341.37783297 161.1171875 342.6171875 C155.14145409 349.8947211 149.66979721 357.44027038 144 365 C224.85 365 305.7 365 389 365 C389 385.79 389 406.58 389 428 C386.03 430.97 383.06 433.94 380 437 C377.71793919 439.78719113 375.5191615 442.55257918 373.375 445.4375 C372.85421875 446.12392578 372.3334375 446.81035156 371.796875 447.51757812 C371.27351563 448.21173828 370.75015625 448.90589844 370.2109375 449.62109375 C369.7059978 450.27977876 369.20105809 450.93846378 368.68081719 451.61710894 C366.94524176 453.96317003 366.94524176 453.96317003 365.66659063 456.57285058 C363.37118997 460.70628197 361.64178025 463.49973148 356.99033749 464.9170773 C353.12555029 465.26417951 349.32606358 465.28643401 345.45326233 465.20254517 C343.95814947 465.20690841 342.46304408 465.21566888 340.96797937 465.22843683 C336.86684314 465.2507723 332.76832406 465.21084462 328.66752136 465.16065621 C324.24292882 465.1174419 319.81848202 465.13208724 315.39373779 465.13967896 C307.73019031 465.14492079 300.06749466 465.11356611 292.40416145 465.05730057 C281.32444344 464.97600431 270.24513702 464.94998373 259.16515308 464.93742065 C241.18856324 464.91553817 223.21242736 464.84899968 205.23608398 464.75439453 C187.77451854 464.66259413 170.31307642 464.59181505 152.85131836 464.54931641 C151.77485202 464.54668917 150.69838568 464.54406194 149.58929915 464.54135509 C144.18894464 464.52830465 138.78858927 464.51566758 133.3882333 464.50323606 C88.59184111 464.39958075 43.79594399 464.22345999 -1 464 C-2.89142316 460.09853667 -4.78099878 456.19618511 -6.66902161 452.29307556 C-7.30869768 450.97128913 -7.94883852 449.6497275 -8.5894928 448.32841492 C-13.92361996 437.32581369 -19.06702735 426.24741445 -24.03662109 415.07470703 C-24.89304298 413.23033977 -25.85580398 411.43619614 -26.83203125 409.65234375 C-28 407 -28 407 -27.921875 404.921875 C-26.68810665 402.34978165 -25.10070269 400.42491338 -23.25 398.25 C-22.03183594 396.79787109 -22.03183594 396.79787109 -20.7890625 395.31640625 C-20.34208008 394.7867627 -19.89509766 394.25711914 -19.43457031 393.71142578 C-16.79704507 390.56488869 -14.21312936 387.37468382 -11.625 384.1875 C-11.07054199 383.5061499 -10.51608398 382.8247998 -9.94482422 382.12280273 C-6.37258965 377.72320997 -2.85751223 373.28329272 0.625 368.8125 C4.58517069 363.7309727 8.68211458 358.79204883 12.87109375 353.89819336 C16.7129798 349.3893132 20.37853247 344.75680032 24.02001953 340.08544922 C27.47203951 335.65943571 30.99726127 331.30042871 34.5625 326.96484375 C41.67191002 318.31734021 48.74544048 309.64436695 55.625 300.8125 C59.58517069 295.7309727 63.68211458 290.79204883 67.87109375 285.89819336 C71.7129798 281.3893132 75.37853247 276.75680032 79.02001953 272.08544922 C82.47203951 267.65943571 85.99726127 263.30042871 89.5625 258.96484375 C96.67191002 250.31734021 103.74544048 241.64436695 110.625 232.8125 C114.58517069 227.7309727 118.68211458 222.79204883 122.87109375 217.89819336 C126.7129798 213.3893132 130.37853247 208.75680032 134.02001953 204.08544922 C137.47203951 199.65943571 140.99726127 195.30042871 144.5625 190.96484375 C151.67191002 182.31734021 158.74544048 173.64436695 165.625 164.8125 C169.58517069 159.7309727 173.68211458 154.79204883 177.87109375 149.89819336 C181.7129798 145.3893132 185.37853247 140.75680032 189.02001953 136.08544922 C192.4640481 131.66968192 195.97984476 127.3198366 199.5390625 122.99609375 C203.1779896 118.5658444 206.78601331 114.11058533 210.39599609 109.65673828 C210.92016113 109.01075684 211.44432617 108.36477539 211.984375 107.69921875 C212.44553711 107.13033936 212.90669922 106.56145996 213.38183594 105.9753418 C215.5709974 103.30296621 217.7884414 100.65387032 220 98 C147.4 97.67 74.8 97.34 0 97 C0 64.99 0 32.98 0 0 Z " fill="#ED4950" transform="translate(332,260)"/>
</svg>
